<svg xmlns="http://www.w3.org/2000/svg" aria-hidden="true" style="position:absolute;width:0;height:0;overflow:hidden"><defs><symbol id="icon-burger" viewBox="0 0 32 32"><path stroke-linecap="round" stroke-linejoin="round" stroke-width="2" d="M28 13.333H4M28 8H4M28 18.667H4M28 24H4"/></symbol><symbol id="icon-close" viewBox="0 0 32 32"><path stroke-linecap="round" stroke-linejoin="round" stroke-width="2" d="M24 8 8 24M8 8l16 16"/></symbol><symbol id="icon-facebook" viewBox="0 0 32 32"><path d="M29 16c0-2.571-.762-5.085-2.191-7.222S23.35 4.974 20.975 3.99A13.004 13.004 0 0 0 6.808 6.808a13.002 13.002 0 0 0 1.97 20.001A13.003 13.003 0 0 0 16 29a13.014 13.014 0 0 0 13-13zM17 26.95V19h3a.997.997 0 0 0 1-1 .997.997 0 0 0-1-1h-3v-3a2 2 0 0 1 2-2h2a.997.997 0 0 0 1-1 .997.997 0 0 0-1-1h-2a4.014 4.014 0 0 0-4 4v3h-3a.997.997 0 0 0-1 1 .997.997 0 0 0 1 1h3v7.95a11.003 11.003 0 0 1-9.989-11.455 10.996 10.996 0 0 1 18.587-7.453 10.997 10.997 0 0 1-6.6 18.908z"/></symbol><symbol id="icon-instagram" viewBox="0 0 32 32"><path d="M16 10a5.998 5.998 0 0 0-4.242 10.243 5.996 5.996 0 0 0 6.539 1.301 5.999 5.999 0 0 0-2.296-11.543zm0 10a4.004 4.004 0 0 1-3.695-2.469 3.992 3.992 0 0 1 .867-4.359A4 4 0 0 1 20 16a4.014 4.014 0 0 1-4 4zm5.5-16.5h-11a6.999 6.999 0 0 0-7 7v11a6.999 6.999 0 0 0 7 7h11a7.003 7.003 0 0 0 7-7v-11a7.003 7.003 0 0 0-7-7zm5 18c0 .657-.129 1.307-.381 1.913s-.62 1.158-1.084 1.622A5.004 5.004 0 0 1 21.5 26.5h-11c-.657 0-1.307-.129-1.913-.381s-1.158-.62-1.622-1.084A5.004 5.004 0 0 1 5.5 21.5v-11a4.997 4.997 0 0 1 5-5h11c.657 0 1.307.129 1.913.381s1.158.62 1.622 1.084A5.004 5.004 0 0 1 26.5 10.5v11zM24 9.5a1.495 1.495 0 0 1-.926 1.385 1.496 1.496 0 0 1-1.635-.326c-.21-.21-.353-.477-.41-.768s-.028-.593.085-.867a1.5 1.5 0 0 1 2.885.574z"/></symbol><symbol id="icon-youtube" viewBox="0 0 32 32"><path d="m20.55 15.162-6-4a1.035 1.035 0 0 0-1.025-.05A.997.997 0 0 0 13 12v8c-.001.182.047.36.139.517s.226.285.386.371c.147.074.31.112.475.112a1.05 1.05 0 0 0 .55-.162l6-4a1.003 1.003 0 0 0 .454-.837.99.99 0 0 0-.454-.837zM15 18.137v-4.275l3.2 2.137-3.2 2.138zm14.288-9.412a2.937 2.937 0 0 0-1.813-2.038C23.2 5.037 16.375 5.049 16 5.049S8.8 5.036 4.525 6.687a2.944 2.944 0 0 0-1.812 2.038c-.325 1.238-.712 3.513-.712 7.275s.388 6.038.712 7.275a2.946 2.946 0 0 0 1.812 2.038c4.1 1.587 10.525 1.637 11.387 1.637h.175c.862 0 7.287-.05 11.387-1.637a2.944 2.944 0 0 0 1.813-2.038c.325-1.238.712-3.513.712-7.275s-.388-6.037-.712-7.275zm-1.938 14.05a.984.984 0 0 1-.588.675C22.8 24.975 16.074 24.95 16 24.95h-.012c-.063 0-6.788.025-10.75-1.5a.982.982 0 0 1-.588-.675C4.35 21.638 4 19.55 4 16s.35-5.637.65-6.775a.984.984 0 0 1 .588-.675c3.813-1.463 10.213-1.5 10.737-1.5H16c.075 0 6.8-.025 10.762 1.5a.98.98 0 0 1 .588.675c.3 1.137.65 3.225.65 6.775s-.35 5.638-.65 6.775z"/></symbol><symbol id="icon-check" viewBox="0 0 32 32"><path stroke-linecap="round" stroke-linejoin="round" stroke-width="3.692" d="M26.666 8 11.999 22.667 5.332 16"/></symbol><symbol id="icon-logo" viewBox="0 0 241 32"><path d="M0 31.965V0h5.991l14.798 10.372h.224L35.811 0h5.99v31.965h-7.153V8.941L24.5 15.736v16.228h-7.153V15.736L7.154 8.941v23.024H.001zM48.515 31.965V0h7.153v31.965h-7.153zM62.365 31.965V0h7.242l22.621 22.979V0h7.153v31.965h-7.242L69.518 8.941v23.024h-7.153zM106.077 31.965V0h7.153v31.965h-7.153zM119.927 31.965V0h5.991l14.798 10.372h.223L155.737 0h5.991v31.965h-7.153V8.941l-10.148 6.795v16.228h-7.153V15.736l-10.193-6.795v23.024h-7.153zM165.759 31.965 180.154 0h11.042l14.396 31.965h-7.78l-3.04-6.751h-18.195l-3.04 6.751h-7.779zm13.412-12.563h13.01l-6.214-13.814h-.581l-6.214 13.814zM209.623 31.965V0h7.153v26.153h23.381v5.812h-30.534z"/></symbol><symbol id="icon-up" viewBox="0 0 32 32"><path d="M31.68 21.932 16.737 6.99c-.213-.214-.459-.321-.737-.321s-.524.107-.738.321L.32 21.932c-.214.214-.321.46-.321.738s.107.524.321.737l1.603 1.603c.214.214.46.321.738.321s.524-.107.738-.321L16 12.409l12.602 12.602c.214.214.46.32.737.32s.524-.107.738-.32l1.603-1.603c.214-.214.32-.46.32-.737s-.106-.524-.32-.738z"/></symbol><symbol id="icon-error" viewBox="0 0 32 32"><path d="M14.667 20h2.667v2.667h-2.667V20zm0-10.667h2.667v8h-2.667v-8zm1.32-6.666C8.627 2.667 2.667 8.64 2.667 16s5.96 13.333 13.32 13.333c7.373 0 13.347-5.973 13.347-13.333S23.361 2.667 15.987 2.667zm.013 24c-5.893 0-10.667-4.773-10.667-10.667S10.106 5.333 16 5.333c5.893 0 10.667 4.773 10.667 10.667S21.894 26.667 16 26.667z"/></symbol></defs></svg>